<svg width="24" height="20" viewBox="0 0 24 20" fill="none" xmlns="http://www.w3.org/2000/svg">
<path d="M23.1425 2.93702C22.3075 3.30702 21.4105 3.55702 20.4675 3.67002C21.4405 3.08781 22.1685 2.17148 22.5155 1.09202C21.6014 1.63501 20.6009 2.01721 19.5575 2.22202C18.8559 1.47288 17.9266 0.976342 16.9138 0.80949C15.9011 0.642638 14.8616 0.814807 13.9568 1.29927C13.0519 1.78373 12.3323 2.55338 11.9097 3.48872C11.4871 4.42406 11.3851 5.47277 11.6195 6.47202C9.76721 6.37901 7.95515 5.89757 6.30095 5.05892C4.64674 4.22028 3.18736 3.04318 2.01752 1.60402C1.61752 2.29402 1.38752 3.09402 1.38752 3.94602C1.38708 4.71301 1.57596 5.46826 1.9374 6.14475C2.29885 6.82124 2.82168 7.39805 3.45952 7.82402C2.7198 7.80048 1.9964 7.6006 1.34952 7.24102V7.30102C1.34945 8.37676 1.72156 9.41939 2.40271 10.252C3.08386 11.0846 4.03209 11.6559 5.08652 11.869C4.40031 12.0547 3.68086 12.0821 2.98252 11.949C3.28002 12.8746 3.85952 13.684 4.63989 14.2639C5.42026 14.8438 6.36244 15.1652 7.33452 15.183C5.68436 16.4784 3.64641 17.1811 1.54852 17.178C1.1769 17.1781 0.8056 17.1564 0.436523 17.113C2.566 18.4822 5.04486 19.2088 7.57652 19.206C16.1465 19.206 20.8315 12.108 20.8315 5.95202C20.8315 5.75202 20.8265 5.55002 20.8175 5.35002C21.7288 4.69099 22.5154 3.87491 23.1405 2.94002L23.1425 2.93702Z" fill="#F8F9FA"/>
</svg>
